<svg xmlns="http://www.w3.org/2000/svg" xmlns:xlink="http://www.w3.org/1999/xlink" width="300" zoomAndPan="magnify" viewBox="0 0 224.87999 74.999997" height="100" preserveAspectRatio="xMidYMid meet" version="1.0"><defs><clipPath id="6aabced984"><path d="M 0 8.195312 L 224.761719 8.195312 L 224.761719 66.664062 L 0 66.664062 Z M 0 8.195312 " clip-rule="nonzero"/></clipPath></defs><g clip-path="url(#6aabced984)"><path fill="#ffffff" d="M 227.542969 42.007812 C 227.539062 41.882812 227.527344 41.757812 227.507812 41.632812 C 227.453125 41.261719 227.335938 40.90625 227.152344 40.578125 C 226.972656 40.246094 226.738281 39.957031 226.449219 39.710938 C 226.164062 39.464844 225.84375 39.273438 225.492188 39.140625 C 225.136719 39.011719 224.769531 38.945312 224.394531 38.945312 C 224.039062 38.941406 223.695312 39 223.359375 39.117188 L 217.515625 28.996094 L 217.097656 28.273438 L 216.945312 28.007812 C 217.136719 27.824219 217.273438 27.609375 217.359375 27.359375 C 217.445312 27.113281 217.472656 26.855469 217.4375 26.597656 C 217.402344 26.335938 217.308594 26.097656 217.160156 25.878906 C 217.011719 25.664062 216.824219 25.488281 216.59375 25.363281 C 216.363281 25.234375 216.117188 25.167969 215.851562 25.15625 C 215.589844 25.148438 215.339844 25.199219 215.101562 25.308594 C 214.859375 25.417969 214.660156 25.574219 214.496094 25.78125 C 214.332031 25.984375 214.222656 26.21875 214.167969 26.476562 L 201.339844 26.476562 C 201.335938 26.4375 201.332031 26.394531 201.328125 26.355469 C 201.308594 26.230469 201.28125 26.105469 201.25 25.984375 C 201.15625 25.652344 201.015625 25.339844 200.820312 25.054688 C 200.628906 24.769531 200.394531 24.523438 200.121094 24.3125 C 199.847656 24.105469 199.546875 23.945312 199.21875 23.832031 C 198.894531 23.722656 198.558594 23.667969 198.214844 23.667969 C 197.859375 23.667969 197.515625 23.726562 197.179688 23.84375 L 191.394531 13.824219 C 191.558594 13.6875 191.703125 13.53125 191.828125 13.359375 C 191.953125 13.1875 192.058594 13.003906 192.140625 12.804688 C 192.21875 12.609375 192.277344 12.402344 192.3125 12.191406 C 192.34375 11.980469 192.351562 11.769531 192.335938 11.558594 C 192.316406 11.34375 192.273438 11.136719 192.207031 10.933594 C 192.140625 10.730469 192.050781 10.539062 191.9375 10.355469 C 191.828125 10.175781 191.695312 10.011719 191.542969 9.859375 C 191.390625 9.710938 191.222656 9.582031 191.039062 9.46875 C 190.855469 9.359375 190.664062 9.273438 190.460938 9.210938 C 190.253906 9.144531 190.046875 9.105469 189.835938 9.09375 C 189.621094 9.078125 189.410156 9.089844 189.199219 9.125 C 188.988281 9.160156 188.785156 9.222656 188.589844 9.304688 C 188.394531 9.390625 188.210938 9.496094 188.039062 9.625 C 187.867188 9.753906 187.714844 9.898438 187.578125 10.0625 C 187.441406 10.226562 187.328125 10.40625 187.234375 10.597656 C 187.140625 10.789062 187.070312 10.992188 187.027344 11.199219 L 173.65625 11.199219 C 173.546875 10.996094 173.40625 10.820312 173.226562 10.679688 C 173.046875 10.535156 172.84375 10.429688 172.625 10.371094 C 172.402344 10.308594 172.175781 10.296875 171.949219 10.328125 C 171.722656 10.363281 171.511719 10.4375 171.3125 10.558594 C 171.117188 10.679688 170.953125 10.835938 170.824219 11.023438 C 170.691406 11.214844 170.605469 11.421875 170.558594 11.644531 C 170.515625 11.871094 170.515625 12.097656 170.5625 12.320312 C 170.613281 12.546875 170.703125 12.753906 170.835938 12.941406 L 164.066406 24.667969 L 163.789062 25.144531 C 163.578125 25.085938 163.367188 25.066406 163.148438 25.09375 C 162.929688 25.117188 162.726562 25.183594 162.535156 25.292969 C 162.34375 25.398438 162.179688 25.539062 162.046875 25.710938 C 161.910156 25.882812 161.8125 26.074219 161.753906 26.285156 L 147.628906 26.285156 C 147.558594 26.046875 147.445312 25.835938 147.28125 25.648438 C 147.121094 25.460938 146.925781 25.320312 146.699219 25.222656 C 146.476562 25.121094 146.238281 25.074219 145.992188 25.082031 C 145.746094 25.085938 145.511719 25.144531 145.289062 25.253906 C 145.070312 25.367188 144.882812 25.515625 144.730469 25.710938 C 144.578125 25.90625 144.472656 26.121094 144.417969 26.363281 C 144.359375 26.601562 144.359375 26.84375 144.410156 27.085938 C 144.460938 27.324219 144.5625 27.542969 144.710938 27.742188 L 144.097656 28.804688 L 138.222656 38.980469 L 138.191406 38.964844 C 137.984375 38.859375 137.765625 38.777344 137.539062 38.71875 C 137.3125 38.664062 137.082031 38.628906 136.847656 38.625 C 136.617188 38.617188 136.382812 38.636719 136.15625 38.683594 C 135.925781 38.726562 135.703125 38.796875 135.492188 38.890625 C 135.277344 38.988281 135.078125 39.101562 134.890625 39.242188 C 134.703125 39.382812 134.53125 39.539062 134.378906 39.714844 C 134.226562 39.894531 134.097656 40.085938 133.988281 40.292969 C 133.878906 40.496094 133.792969 40.714844 133.730469 40.9375 L 121.085938 40.9375 C 120.984375 40.582031 120.785156 40.292969 120.488281 40.070312 C 120.195312 39.847656 119.863281 39.738281 119.492188 39.738281 C 119.179688 39.734375 118.890625 39.816406 118.621094 39.980469 C 118.355469 40.144531 118.152344 40.367188 118.011719 40.648438 C 117.867188 40.925781 117.8125 41.222656 117.835938 41.535156 C 117.863281 41.847656 117.96875 42.128906 118.15625 42.378906 L 118.054688 42.550781 L 110.710938 55.273438 C 110.371094 55.234375 110.050781 55.292969 109.75 55.449219 C 109.445312 55.609375 109.214844 55.835938 109.054688 56.140625 L 96.125 56.140625 C 96.125 56.125 96.125 56.109375 96.121094 56.097656 C 96.085938 55.859375 96.023438 55.632812 95.9375 55.410156 C 95.851562 55.191406 95.742188 54.980469 95.609375 54.785156 C 95.472656 54.585938 95.320312 54.410156 95.144531 54.246094 C 94.972656 54.085938 94.78125 53.945312 94.574219 53.824219 C 94.371094 53.707031 94.152344 53.613281 93.925781 53.542969 C 93.699219 53.472656 93.464844 53.429688 93.226562 53.414062 C 92.992188 53.398438 92.753906 53.40625 92.519531 53.445312 C 92.285156 53.480469 92.058594 53.542969 91.835938 53.628906 L 91.816406 53.640625 L 85.425781 42.566406 C 85.578125 42.414062 85.695312 42.234375 85.78125 42.035156 C 85.863281 41.835938 85.90625 41.628906 85.910156 41.410156 C 85.910156 41.195312 85.871094 40.984375 85.792969 40.785156 C 85.710938 40.582031 85.597656 40.402344 85.449219 40.246094 L 92.605469 27.847656 C 92.738281 27.878906 92.871094 27.894531 93.003906 27.894531 C 93.226562 27.894531 93.4375 27.855469 93.640625 27.769531 C 93.84375 27.683594 94.023438 27.566406 94.179688 27.410156 C 94.335938 27.253906 94.453125 27.074219 94.539062 26.871094 C 94.621094 26.667969 94.664062 26.457031 94.664062 26.234375 C 94.664062 26.015625 94.621094 25.804688 94.539062 25.601562 C 94.453125 25.398438 94.335938 25.21875 94.179688 25.0625 C 94.023438 24.90625 93.84375 24.785156 93.640625 24.703125 C 93.4375 24.617188 93.226562 24.574219 93.003906 24.574219 C 92.878906 24.574219 92.753906 24.589844 92.632812 24.621094 L 92.621094 24.601562 L 86.222656 13.515625 L 86.050781 13.222656 C 86.191406 13.074219 86.3125 12.914062 86.414062 12.738281 C 86.515625 12.5625 86.597656 12.378906 86.660156 12.183594 C 86.71875 11.992188 86.757812 11.792969 86.773438 11.59375 C 86.789062 11.390625 86.785156 11.191406 86.753906 10.988281 C 86.726562 10.789062 86.675781 10.59375 86.601562 10.40625 C 86.527344 10.214844 86.433594 10.039062 86.320312 9.871094 C 86.207031 9.703125 86.074219 9.550781 85.929688 9.410156 C 85.78125 9.273438 85.617188 9.152344 85.441406 9.050781 C 85.269531 8.949219 85.082031 8.867188 84.890625 8.808594 C 84.695312 8.75 84.5 8.710938 84.296875 8.695312 C 84.09375 8.679688 83.894531 8.6875 83.691406 8.71875 C 83.492188 8.746094 83.296875 8.800781 83.109375 8.875 C 82.921875 8.949219 82.742188 9.042969 82.574219 9.15625 C 82.410156 9.269531 82.253906 9.402344 82.117188 9.550781 C 81.980469 9.699219 81.863281 9.863281 81.761719 10.039062 C 81.660156 10.214844 81.578125 10.398438 81.519531 10.589844 L 68.363281 10.589844 C 68.292969 10.347656 68.175781 10.128906 68.003906 9.9375 C 67.832031 9.75 67.628906 9.605469 67.390625 9.511719 C 67.15625 9.414062 66.910156 9.375 66.65625 9.394531 C 66.402344 9.410156 66.164062 9.484375 65.941406 9.613281 C 65.722656 9.738281 65.539062 9.910156 65.394531 10.121094 C 65.253906 10.332031 65.164062 10.5625 65.128906 10.816406 C 65.089844 11.070312 65.113281 11.316406 65.191406 11.558594 C 65.269531 11.800781 65.398438 12.015625 65.574219 12.199219 L 59.175781 23.285156 L 59.15625 23.316406 C 58.9375 23.226562 58.710938 23.164062 58.472656 23.125 C 58.238281 23.089844 58.003906 23.078125 57.765625 23.09375 C 57.527344 23.113281 57.292969 23.152344 57.066406 23.222656 C 56.839844 23.292969 56.621094 23.386719 56.414062 23.503906 C 56.207031 23.625 56.019531 23.761719 55.84375 23.925781 C 55.667969 24.085938 55.515625 24.265625 55.378906 24.464844 C 55.246094 24.660156 55.136719 24.871094 55.050781 25.089844 C 54.964844 25.3125 54.902344 25.542969 54.867188 25.777344 L 42.082031 25.777344 C 42.011719 25.53125 41.890625 25.3125 41.722656 25.125 C 41.550781 24.933594 41.347656 24.792969 41.109375 24.695312 C 40.871094 24.597656 40.628906 24.558594 40.371094 24.578125 C 40.117188 24.59375 39.878906 24.667969 39.65625 24.796875 C 39.4375 24.921875 39.253906 25.09375 39.109375 25.304688 C 38.96875 25.515625 38.878906 25.746094 38.84375 26 C 38.808594 26.253906 38.828125 26.503906 38.90625 26.746094 C 38.984375 26.988281 39.113281 27.203125 39.289062 27.386719 L 32.890625 38.472656 C 32.671875 38.382812 32.445312 38.324219 32.210938 38.285156 C 31.972656 38.25 31.738281 38.242188 31.503906 38.257812 C 31.265625 38.277344 31.035156 38.320312 30.808594 38.390625 C 30.578125 38.460938 30.363281 38.554688 30.15625 38.671875 C 29.953125 38.789062 29.761719 38.929688 29.589844 39.09375 C 29.414062 39.253906 29.261719 39.433594 29.128906 39.628906 C 28.996094 39.824219 28.886719 40.035156 28.800781 40.257812 C 28.710938 40.476562 28.652344 40.707031 28.617188 40.941406 L 15.851562 40.941406 C 15.792969 40.730469 15.695312 40.539062 15.5625 40.367188 C 15.425781 40.195312 15.265625 40.058594 15.074219 39.949219 C 14.886719 39.84375 14.683594 39.777344 14.464844 39.75 C 14.25 39.722656 14.035156 39.738281 13.828125 39.796875 L 7.191406 28.304688 C 7.359375 28.167969 7.503906 28.011719 7.632812 27.835938 C 7.761719 27.660156 7.867188 27.472656 7.949219 27.273438 C 8.035156 27.074219 8.089844 26.867188 8.125 26.652344 C 8.15625 26.441406 8.164062 26.226562 8.144531 26.007812 C 8.128906 25.792969 8.082031 25.582031 8.015625 25.378906 C 7.945312 25.171875 7.851562 24.980469 7.734375 24.796875 C 7.617188 24.613281 7.480469 24.449219 7.324219 24.296875 C 7.167969 24.148438 6.996094 24.019531 6.808594 23.910156 C 6.621094 23.804688 6.425781 23.71875 6.214844 23.660156 C 6.007812 23.597656 5.796875 23.5625 5.578125 23.554688 C 5.363281 23.546875 5.148438 23.5625 4.9375 23.605469 C 4.726562 23.648438 4.519531 23.714844 4.324219 23.804688 C 4.128906 23.898438 3.945312 24.011719 3.777344 24.148438 C 3.609375 24.285156 3.460938 24.4375 3.328125 24.609375 C 3.195312 24.78125 3.085938 24.96875 3 25.164062 C 2.914062 25.363281 2.851562 25.570312 2.816406 25.785156 L -8.917969 25.785156 C -8.953125 25.546875 -9.011719 25.320312 -9.097656 25.097656 C -9.183594 24.878906 -9.292969 24.667969 -9.429688 24.472656 C -9.5625 24.277344 -9.714844 24.097656 -9.890625 23.9375 C -10.0625 23.773438 -10.253906 23.632812 -10.457031 23.515625 C -10.664062 23.398438 -10.878906 23.300781 -11.105469 23.234375 C -11.332031 23.164062 -11.566406 23.121094 -11.800781 23.101562 C -12.039062 23.085938 -12.273438 23.09375 -12.507812 23.128906 C -12.742188 23.164062 -12.972656 23.226562 -13.191406 23.316406 L -19.105469 13.0625 C -18.949219 12.917969 -18.8125 12.757812 -18.691406 12.582031 C -18.574219 12.402344 -18.476562 12.214844 -18.402344 12.011719 C -18.328125 11.8125 -18.277344 11.605469 -18.253906 11.394531 C -18.230469 11.179688 -18.230469 10.96875 -18.257812 10.757812 C -18.28125 10.542969 -18.332031 10.335938 -18.40625 10.136719 C -18.484375 9.9375 -18.582031 9.75 -18.699219 9.570312 C -18.820312 9.394531 -18.960938 9.234375 -19.117188 9.089844 C -19.277344 8.945312 -19.449219 8.824219 -19.636719 8.722656 C -19.824219 8.617188 -20.023438 8.539062 -20.230469 8.484375 C -20.433594 8.429688 -20.644531 8.398438 -20.859375 8.394531 C -21.074219 8.386719 -21.285156 8.40625 -21.492188 8.453125 C -21.703125 8.496094 -21.902344 8.566406 -22.09375 8.660156 C -22.289062 8.753906 -22.46875 8.867188 -22.632812 9.003906 C -22.796875 9.136719 -22.945312 9.292969 -23.074219 9.460938 C -23.203125 9.632812 -23.308594 9.816406 -23.394531 10.011719 C -23.480469 10.207031 -23.539062 10.410156 -23.578125 10.621094 L -35.855469 10.621094 L -35.855469 11.539062 L -23.578125 11.539062 C -23.542969 11.738281 -23.484375 11.929688 -23.40625 12.117188 C -23.328125 12.304688 -23.230469 12.480469 -23.113281 12.644531 C -22.996094 12.808594 -22.859375 12.960938 -22.710938 13.09375 C -22.558594 13.226562 -22.394531 13.34375 -22.214844 13.441406 C -22.039062 13.539062 -21.851562 13.613281 -21.65625 13.667969 C -21.460938 13.722656 -21.261719 13.757812 -21.0625 13.765625 C -20.859375 13.777344 -20.660156 13.765625 -20.460938 13.730469 C -20.257812 13.695312 -20.066406 13.636719 -19.878906 13.558594 L -13.984375 23.769531 C -14.171875 23.917969 -14.335938 24.085938 -14.484375 24.269531 C -14.632812 24.453125 -14.761719 24.652344 -14.863281 24.867188 C -14.964844 25.082031 -15.042969 25.304688 -15.097656 25.535156 C -15.152344 25.765625 -15.175781 26 -15.175781 26.238281 C -15.175781 26.472656 -15.152344 26.707031 -15.097656 26.941406 C -15.042969 27.171875 -14.964844 27.394531 -14.863281 27.605469 C -14.761719 27.820312 -14.632812 28.019531 -14.484375 28.203125 C -14.335938 28.390625 -14.171875 28.554688 -13.984375 28.703125 L -20.382812 39.789062 C -20.589844 39.738281 -20.800781 39.722656 -21.015625 39.753906 C -21.226562 39.785156 -21.425781 39.851562 -21.613281 39.960938 C -21.800781 40.066406 -21.957031 40.207031 -22.089844 40.375 C -22.222656 40.542969 -22.316406 40.734375 -22.375 40.941406 L -35.855469 40.941406 L -35.855469 41.855469 L -22.378906 41.855469 C -22.320312 42.0625 -22.226562 42.253906 -22.09375 42.421875 C -21.960938 42.59375 -21.804688 42.730469 -21.617188 42.839844 C -21.429688 42.945312 -21.230469 43.015625 -21.015625 43.042969 C -20.804688 43.074219 -20.59375 43.0625 -20.386719 43.007812 L -13.222656 55.40625 C -13.371094 55.5625 -13.488281 55.738281 -13.566406 55.9375 C -13.648438 56.136719 -13.6875 56.34375 -13.6875 56.554688 C -13.6875 56.769531 -13.648438 56.976562 -13.566406 57.175781 C -13.488281 57.375 -13.371094 57.550781 -13.222656 57.707031 L -18.425781 66.714844 L -17.363281 66.714844 L -12.425781 58.167969 C -12.21875 58.21875 -12.007812 58.230469 -11.792969 58.203125 C -11.582031 58.171875 -11.382812 58.105469 -11.195312 57.996094 C -11.007812 57.890625 -10.847656 57.75 -10.71875 57.582031 C -10.585938 57.410156 -10.488281 57.222656 -10.433594 57.015625 L 3.816406 57.015625 C 3.878906 57.226562 3.976562 57.417969 4.109375 57.585938 C 4.246094 57.757812 4.410156 57.898438 4.601562 58.003906 C 4.792969 58.113281 4.996094 58.179688 5.214844 58.203125 C 5.429688 58.230469 5.644531 58.214844 5.855469 58.15625 L 10.796875 66.714844 L 11.863281 66.714844 L 6.640625 57.671875 C 6.777344 57.519531 6.886719 57.347656 6.960938 57.15625 C 7.035156 56.960938 7.074219 56.761719 7.074219 56.554688 C 7.074219 56.351562 7.035156 56.148438 6.960938 55.957031 C 6.886719 55.765625 6.777344 55.59375 6.640625 55.441406 L 13.820312 43 C 14.03125 43.058594 14.246094 43.074219 14.460938 43.046875 C 14.675781 43.019531 14.878906 42.953125 15.070312 42.84375 C 15.257812 42.738281 15.421875 42.597656 15.554688 42.429688 C 15.691406 42.257812 15.789062 42.066406 15.847656 41.855469 L 28.617188 41.855469 C 28.652344 42.09375 28.710938 42.320312 28.796875 42.539062 C 28.882812 42.761719 28.992188 42.96875 29.125 43.167969 C 29.257812 43.363281 29.410156 43.542969 29.585938 43.703125 C 29.757812 43.863281 29.949219 44.003906 30.152344 44.125 C 30.359375 44.242188 30.574219 44.335938 30.800781 44.40625 C 31.027344 44.476562 31.257812 44.523438 31.496094 44.539062 C 31.730469 44.558594 31.964844 44.550781 32.199219 44.515625 C 32.433594 44.480469 32.664062 44.417969 32.882812 44.332031 L 39.28125 55.417969 C 39.132812 55.570312 39.019531 55.746094 38.941406 55.945312 C 38.859375 56.144531 38.820312 56.347656 38.820312 56.5625 C 38.820312 56.777344 38.859375 56.980469 38.941406 57.179688 C 39.019531 57.378906 39.132812 57.554688 39.28125 57.707031 L 34.078125 66.722656 L 35.152344 66.722656 L 40.085938 58.175781 C 40.21875 58.207031 40.351562 58.222656 40.488281 58.226562 C 40.859375 58.222656 41.191406 58.113281 41.484375 57.890625 C 41.78125 57.667969 41.980469 57.378906 42.082031 57.023438 L 56.324219 57.023438 C 56.324219 57.15625 56.339844 57.292969 56.375 57.421875 C 56.40625 57.554688 56.453125 57.679688 56.519531 57.800781 C 56.582031 57.917969 56.65625 58.03125 56.746094 58.128906 C 56.839844 58.230469 56.941406 58.320312 57.050781 58.394531 C 57.164062 58.472656 57.28125 58.535156 57.410156 58.582031 C 57.535156 58.628906 57.667969 58.65625 57.800781 58.671875 C 57.9375 58.6875 58.070312 58.6875 58.207031 58.667969 C 58.339844 58.648438 58.46875 58.617188 58.59375 58.566406 L 63.304688 66.71875 L 64.378906 66.71875 L 59.332031 57.980469 C 59.457031 57.804688 59.542969 57.617188 59.59375 57.410156 C 59.644531 57.203125 59.652344 56.992188 59.625 56.78125 C 59.59375 56.570312 59.523438 56.371094 59.417969 56.1875 C 59.308594 56.003906 59.171875 55.847656 59.003906 55.714844 L 66.332031 43.015625 C 66.542969 43.066406 66.753906 43.078125 66.964844 43.050781 C 67.179688 43.019531 67.378906 42.953125 67.566406 42.84375 C 67.753906 42.738281 67.910156 42.597656 68.042969 42.429688 C 68.175781 42.257812 68.269531 42.070312 68.328125 41.863281 L 82.648438 41.863281 C 82.75 42.21875 82.949219 42.507812 83.246094 42.730469 C 83.542969 42.953125 83.875 43.066406 84.242188 43.066406 C 84.371094 43.066406 84.496094 43.050781 84.621094 43.019531 L 91.027344 54.109375 C 90.84375 54.257812 90.679688 54.421875 90.535156 54.605469 C 90.390625 54.792969 90.265625 54.988281 90.164062 55.203125 C 90.0625 55.414062 89.988281 55.632812 89.933594 55.863281 C 89.882812 56.09375 89.855469 56.324219 89.855469 56.558594 C 89.855469 56.792969 89.882812 57.027344 89.933594 57.253906 C 89.988281 57.484375 90.0625 57.707031 90.164062 57.917969 C 90.265625 58.128906 90.390625 58.328125 90.535156 58.511719 C 90.679688 58.695312 90.84375 58.863281 91.027344 59.007812 L 86.578125 66.71875 L 87.640625 66.71875 L 91.804688 59.503906 L 91.820312 59.476562 C 91.847656 59.488281 91.871094 59.496094 91.898438 59.503906 C 92.253906 59.640625 92.621094 59.707031 93.003906 59.707031 C 93.378906 59.707031 93.738281 59.644531 94.089844 59.511719 C 94.441406 59.382812 94.757812 59.199219 95.042969 58.957031 C 95.328125 58.714844 95.5625 58.429688 95.746094 58.101562 C 95.929688 57.777344 96.050781 57.429688 96.109375 57.0625 L 108.867188 57.0625 C 108.886719 57.3125 108.960938 57.550781 109.089844 57.769531 C 109.214844 57.988281 109.386719 58.167969 109.597656 58.308594 C 109.808594 58.449219 110.039062 58.535156 110.289062 58.570312 C 110.539062 58.605469 110.785156 58.585938 111.027344 58.507812 L 115.765625 66.71875 L 116.890625 66.71875 L 111.828125 57.945312 C 111.960938 57.773438 112.058594 57.585938 112.117188 57.375 C 112.175781 57.164062 112.195312 56.953125 112.167969 56.734375 C 112.144531 56.519531 112.078125 56.316406 111.972656 56.125 C 111.867188 55.933594 111.730469 55.773438 111.5625 55.636719 L 118.847656 43.015625 L 118.886719 42.949219 C 119.070312 43.019531 119.257812 43.058594 119.457031 43.0625 C 119.652344 43.066406 119.84375 43.035156 120.027344 42.972656 C 120.214844 42.910156 120.382812 42.816406 120.535156 42.691406 C 120.6875 42.566406 120.816406 42.421875 120.914062 42.25 C 120.988281 42.128906 121.046875 42 121.085938 41.859375 L 133.617188 41.859375 C 133.621094 41.984375 133.632812 42.109375 133.652344 42.234375 C 133.683594 42.46875 133.746094 42.695312 133.832031 42.917969 C 133.917969 43.136719 134.027344 43.347656 134.160156 43.542969 C 134.292969 43.738281 134.445312 43.917969 134.621094 44.082031 C 134.792969 44.242188 134.980469 44.382812 135.1875 44.5 C 135.390625 44.621094 135.609375 44.714844 135.835938 44.785156 C 136.0625 44.855469 136.292969 44.898438 136.527344 44.917969 C 136.765625 44.933594 137 44.925781 137.234375 44.890625 C 137.46875 44.855469 137.695312 44.792969 137.917969 44.707031 C 137.976562 44.683594 138.035156 44.660156 138.089844 44.632812 L 143.789062 54.503906 C 143.640625 54.628906 143.503906 54.769531 143.386719 54.925781 C 143.265625 55.082031 143.164062 55.25 143.082031 55.425781 C 143 55.605469 142.9375 55.789062 142.894531 55.980469 C 142.851562 56.171875 142.832031 56.367188 142.832031 56.5625 C 142.832031 56.757812 142.851562 56.953125 142.894531 57.144531 C 142.9375 57.335938 143 57.519531 143.082031 57.695312 C 143.164062 57.875 143.265625 58.042969 143.386719 58.195312 C 143.503906 58.351562 143.640625 58.492188 143.789062 58.621094 L 139.117188 66.71875 L 140.175781 66.71875 L 144.585938 59.082031 C 144.917969 59.207031 145.261719 59.261719 145.617188 59.25 C 145.96875 59.238281 146.308594 59.160156 146.632812 59.015625 C 146.957031 58.867188 147.238281 58.667969 147.480469 58.40625 C 147.726562 58.148438 147.910156 57.855469 148.039062 57.523438 L 161.757812 57.523438 C 161.828125 57.773438 161.949219 57.992188 162.121094 58.179688 C 162.292969 58.371094 162.496094 58.515625 162.734375 58.609375 C 162.972656 58.707031 163.21875 58.742188 163.476562 58.726562 C 163.730469 58.707031 163.972656 58.632812 164.191406 58.5 C 164.414062 58.371094 164.59375 58.199219 164.738281 57.984375 C 164.878906 57.769531 164.964844 57.535156 165 57.28125 C 165.03125 57.027344 165.007812 56.777344 164.921875 56.535156 C 164.839844 56.292969 164.707031 56.082031 164.527344 55.898438 L 170.890625 44.875 C 171.632812 45.136719 172.367188 45.125 173.097656 44.835938 C 173.613281 44.636719 174.042969 44.320312 174.390625 43.894531 C 174.738281 43.464844 174.957031 42.980469 175.050781 42.4375 L 188.0625 42.4375 C 188.136719 42.828125 188.328125 43.148438 188.636719 43.398438 C 188.941406 43.652344 189.292969 43.777344 189.691406 43.777344 C 189.785156 43.777344 189.878906 43.769531 189.972656 43.753906 L 190.257812 44.242188 L 197.042969 56 C 196.875 56.183594 196.75 56.390625 196.675781 56.628906 C 196.597656 56.867188 196.578125 57.105469 196.609375 57.355469 C 196.644531 57.601562 196.726562 57.828125 196.863281 58.035156 C 196.996094 58.246094 197.167969 58.414062 197.382812 58.546875 C 197.59375 58.675781 197.820312 58.757812 198.070312 58.785156 C 198.316406 58.8125 198.558594 58.785156 198.792969 58.707031 C 199.027344 58.625 199.234375 58.496094 199.414062 58.324219 C 199.589844 58.148438 199.722656 57.945312 199.808594 57.714844 L 214.242188 57.714844 C 214.328125 57.945312 214.460938 58.148438 214.636719 58.320312 C 214.8125 58.492188 215.015625 58.621094 215.25 58.703125 C 215.484375 58.785156 215.722656 58.8125 215.96875 58.789062 C 216.214844 58.761719 216.441406 58.6875 216.65625 58.558594 C 216.867188 58.433594 217.039062 58.265625 217.179688 58.058594 C 217.316406 57.855469 217.402344 57.628906 217.441406 57.386719 C 217.476562 57.140625 217.460938 56.902344 217.390625 56.664062 C 217.320312 56.425781 217.199219 56.214844 217.035156 56.03125 L 223.367188 45.070312 C 223.699219 45.1875 224.042969 45.246094 224.398438 45.246094 C 224.742188 45.246094 225.078125 45.191406 225.40625 45.078125 C 225.734375 44.96875 226.035156 44.808594 226.308594 44.601562 C 226.582031 44.390625 226.816406 44.144531 227.007812 43.859375 C 227.199219 43.570312 227.34375 43.261719 227.433594 42.929688 C 227.46875 42.808594 227.496094 42.683594 227.511719 42.554688 C 227.535156 42.40625 227.546875 42.25 227.546875 42.097656 C 227.542969 42.0625 227.542969 42.035156 227.542969 42.007812 Z M 59.964844 23.746094 L 66.363281 12.660156 C 66.574219 12.714844 66.785156 12.726562 66.996094 12.699219 C 67.210938 12.667969 67.410156 12.601562 67.597656 12.492188 C 67.785156 12.386719 67.945312 12.246094 68.078125 12.078125 C 68.207031 11.90625 68.304688 11.71875 68.363281 11.507812 L 81.402344 11.507812 C 81.414062 11.734375 81.453125 11.953125 81.519531 12.167969 C 81.582031 12.382812 81.675781 12.585938 81.792969 12.777344 C 81.910156 12.972656 82.046875 13.144531 82.207031 13.300781 C 82.367188 13.460938 82.546875 13.59375 82.738281 13.707031 C 82.933594 13.820312 83.140625 13.90625 83.355469 13.96875 C 83.570312 14.03125 83.792969 14.0625 84.015625 14.070312 C 84.242188 14.074219 84.464844 14.054688 84.683594 14.003906 C 84.902344 13.953125 85.113281 13.878906 85.3125 13.777344 L 85.425781 13.976562 L 91.828125 25.066406 L 91.828125 25.070312 C 91.671875 25.222656 91.554688 25.402344 91.472656 25.601562 C 91.386719 25.804688 91.34375 26.011719 91.34375 26.230469 C 91.339844 26.449219 91.378906 26.65625 91.460938 26.859375 C 91.542969 27.0625 91.660156 27.242188 91.808594 27.398438 L 84.652344 39.792969 C 84.445312 39.738281 84.238281 39.726562 84.023438 39.753906 C 83.8125 39.78125 83.613281 39.847656 83.425781 39.953125 C 83.242188 40.058594 83.082031 40.195312 82.949219 40.359375 C 82.816406 40.527344 82.71875 40.714844 82.65625 40.917969 L 68.328125 40.917969 C 68.222656 40.570312 68.019531 40.285156 67.726562 40.066406 C 67.433594 39.851562 67.105469 39.742188 66.738281 39.742188 C 66.617188 39.742188 66.492188 39.753906 66.371094 39.78125 L 66.363281 39.765625 L 59.964844 28.6875 C 60.148438 28.539062 60.3125 28.371094 60.457031 28.1875 C 60.601562 28.003906 60.722656 27.804688 60.824219 27.589844 C 60.925781 27.378906 61 27.160156 61.050781 26.929688 C 61.105469 26.699219 61.128906 26.46875 61.128906 26.234375 C 61.128906 25.996094 61.101562 25.765625 61.046875 25.535156 C 60.996094 25.308594 60.917969 25.089844 60.816406 24.875 C 60.710938 24.664062 60.585938 24.46875 60.441406 24.285156 C 60.292969 24.101562 60.128906 23.933594 59.945312 23.789062 Z M 57.980469 24.007812 C 58.441406 24.007812 58.863281 24.136719 59.246094 24.398438 C 59.625 24.660156 59.898438 25.007812 60.0625 25.4375 C 60.230469 25.871094 60.257812 26.3125 60.148438 26.761719 C 60.042969 27.210938 59.816406 27.589844 59.472656 27.898438 C 59.421875 27.941406 59.371094 27.984375 59.320312 28.023438 C 59.132812 28.160156 58.929688 28.265625 58.707031 28.335938 L 58.714844 28.347656 L 58.679688 28.359375 C 58.453125 28.433594 58.21875 28.472656 57.980469 28.472656 C 57.6875 28.464844 57.40625 28.40625 57.140625 28.289062 C 56.871094 28.171875 56.636719 28.011719 56.429688 27.800781 C 56.226562 27.59375 56.070312 27.355469 55.957031 27.082031 C 55.847656 26.8125 55.792969 26.53125 55.792969 26.238281 C 55.792969 25.945312 55.847656 25.664062 55.957031 25.394531 C 56.070312 25.125 56.226562 24.886719 56.429688 24.675781 C 56.636719 24.46875 56.871094 24.304688 57.140625 24.191406 C 57.40625 24.074219 57.6875 24.011719 57.980469 24.007812 Z M 6.398438 28.761719 L 13.039062 40.269531 C 12.898438 40.421875 12.789062 40.59375 12.710938 40.789062 C 12.632812 40.984375 12.59375 41.1875 12.59375 41.394531 C 12.59375 41.605469 12.632812 41.804688 12.710938 42 C 12.789062 42.195312 12.898438 42.367188 13.039062 42.519531 L 5.859375 54.953125 C 5.714844 54.914062 5.566406 54.894531 5.417969 54.894531 C 5.046875 54.894531 4.710938 55.003906 4.414062 55.226562 C 4.121094 55.449219 3.917969 55.742188 3.816406 56.097656 L -10.433594 56.097656 C -10.492188 55.890625 -10.585938 55.703125 -10.71875 55.53125 C -10.851562 55.363281 -11.011719 55.222656 -11.195312 55.117188 C -11.382812 55.007812 -11.582031 54.941406 -11.796875 54.910156 C -12.011719 54.882812 -12.222656 54.894531 -12.429688 54.945312 L -19.589844 42.546875 C -19.441406 42.394531 -19.324219 42.214844 -19.246094 42.019531 C -19.164062 41.820312 -19.125 41.613281 -19.125 41.398438 C -19.125 41.183594 -19.164062 40.976562 -19.246094 40.777344 C -19.324219 40.578125 -19.441406 40.402344 -19.589844 40.25 L -13.191406 29.164062 C -12.96875 29.25 -12.742188 29.3125 -12.507812 29.347656 C -12.273438 29.382812 -12.039062 29.390625 -11.800781 29.375 C -11.5625 29.355469 -11.332031 29.3125 -11.105469 29.242188 C -10.878906 29.175781 -10.664062 29.082031 -10.457031 28.960938 C -10.253906 28.84375 -10.0625 28.703125 -9.890625 28.542969 C -9.714844 28.378906 -9.5625 28.203125 -9.429688 28.003906 C -9.296875 27.808594 -9.183594 27.601562 -9.097656 27.378906 C -9.011719 27.160156 -8.953125 26.929688 -8.917969 26.695312 L 2.808594 26.695312 C 2.84375 26.890625 2.898438 27.078125 2.972656 27.261719 C 3.046875 27.445312 3.144531 27.617188 3.253906 27.777344 C 3.367188 27.941406 3.496094 28.089844 3.644531 28.222656 C 3.789062 28.355469 3.949219 28.472656 4.117188 28.570312 C 4.289062 28.667969 4.46875 28.746094 4.65625 28.804688 C 4.847656 28.867188 5.039062 28.902344 5.234375 28.921875 C 5.433594 28.9375 5.628906 28.933594 5.824219 28.90625 C 6.019531 28.878906 6.210938 28.832031 6.394531 28.761719 Z M -14.261719 26.238281 C -14.261719 25.574219 -14.011719 25.019531 -13.515625 24.578125 C -13.460938 24.527344 -13.402344 24.476562 -13.339844 24.433594 C -13.214844 24.34375 -13.082031 24.265625 -12.941406 24.203125 C -12.871094 24.171875 -12.796875 24.144531 -12.722656 24.117188 C -12.5 24.042969 -12.265625 24.007812 -12.027344 24.007812 C -11.738281 24.011719 -11.457031 24.074219 -11.1875 24.191406 C -10.921875 24.304688 -10.683594 24.46875 -10.480469 24.675781 C -10.273438 24.886719 -10.117188 25.125 -10.007812 25.394531 C -9.898438 25.664062 -9.839844 25.945312 -9.839844 26.238281 C -9.839844 26.53125 -9.898438 26.8125 -10.007812 27.082031 C -10.117188 27.355469 -10.273438 27.59375 -10.480469 27.800781 C -10.683594 28.011719 -10.921875 28.171875 -11.1875 28.289062 C -11.457031 28.40625 -11.738281 28.464844 -12.027344 28.472656 C -12.265625 28.472656 -12.5 28.433594 -12.722656 28.359375 C -12.816406 28.328125 -12.90625 28.292969 -12.992188 28.25 C -13.164062 28.167969 -13.324219 28.0625 -13.472656 27.941406 L -13.515625 27.902344 C -14.011719 27.460938 -14.261719 26.90625 -14.261719 26.238281 Z M 31.734375 43.628906 C 31.4375 43.628906 31.152344 43.574219 30.878906 43.460938 C 30.605469 43.347656 30.363281 43.183594 30.15625 42.976562 C 29.945312 42.765625 29.785156 42.523438 29.671875 42.25 C 29.558594 41.976562 29.5 41.695312 29.5 41.398438 C 29.5 41.101562 29.558594 40.816406 29.671875 40.542969 C 29.785156 40.269531 29.945312 40.027344 30.15625 39.820312 C 30.363281 39.609375 30.605469 39.449219 30.878906 39.335938 C 31.152344 39.222656 31.4375 39.164062 31.734375 39.164062 C 32.195312 39.164062 32.617188 39.296875 33 39.558594 C 33.378906 39.820312 33.652344 40.167969 33.816406 40.601562 C 33.984375 41.03125 34.011719 41.472656 33.902344 41.921875 C 33.792969 42.371094 33.566406 42.75 33.222656 43.058594 C 33.222656 43.058594 33.222656 43.066406 33.214844 43.066406 C 32.984375 43.269531 32.722656 43.421875 32.429688 43.519531 L 32.417969 43.519531 C 32.195312 43.589844 31.964844 43.628906 31.730469 43.628906 Z M 42.078125 56.097656 C 42.019531 55.890625 41.925781 55.703125 41.792969 55.53125 C 41.660156 55.363281 41.503906 55.222656 41.316406 55.117188 C 41.128906 55.007812 40.929688 54.941406 40.714844 54.910156 C 40.503906 54.882812 40.292969 54.894531 40.082031 54.945312 L 33.6875 43.863281 C 33.871094 43.71875 34.039062 43.550781 34.1875 43.367188 C 34.335938 43.179688 34.464844 42.980469 34.566406 42.769531 C 34.671875 42.554688 34.75 42.332031 34.800781 42.101562 C 34.855469 41.871094 34.882812 41.636719 34.882812 41.398438 C 34.882812 41.160156 34.855469 40.925781 34.800781 40.695312 C 34.75 40.464844 34.671875 40.242188 34.566406 40.027344 C 34.464844 39.8125 34.335938 39.613281 34.1875 39.429688 C 34.039062 39.242188 33.871094 39.078125 33.6875 38.929688 L 40.085938 27.84375 C 40.21875 27.878906 40.351562 27.894531 40.488281 27.894531 C 40.859375 27.894531 41.191406 27.785156 41.488281 27.5625 C 41.785156 27.339844 41.980469 27.050781 42.082031 26.691406 L 54.867188 26.691406 C 54.921875 27.066406 55.042969 27.417969 55.222656 27.75 C 55.40625 28.082031 55.640625 28.371094 55.925781 28.617188 C 56.210938 28.863281 56.53125 29.054688 56.886719 29.1875 C 57.238281 29.316406 57.605469 29.382812 57.984375 29.382812 C 58.386719 29.382812 58.773438 29.308594 59.148438 29.160156 L 65.546875 40.246094 C 65.398438 40.398438 65.28125 40.574219 65.203125 40.773438 C 65.121094 40.96875 65.082031 41.175781 65.078125 41.386719 C 65.078125 41.601562 65.117188 41.808594 65.195312 42.007812 C 65.273438 42.203125 65.386719 42.382812 65.53125 42.535156 L 58.128906 55.363281 C 58.078125 55.363281 58.035156 55.355469 57.984375 55.355469 C 57.386719 55.355469 56.925781 55.605469 56.597656 56.101562 Z M 93.003906 58.789062 C 92.785156 58.789062 92.574219 58.757812 92.363281 58.695312 L 92.28125 58.671875 C 92.238281 58.65625 92.191406 58.640625 92.152344 58.621094 C 92.113281 58.601562 92.09375 58.597656 92.066406 58.582031 C 92.035156 58.570312 91.996094 58.550781 91.964844 58.53125 L 91.957031 58.53125 C 91.929688 58.519531 91.90625 58.503906 91.878906 58.488281 L 91.84375 58.46875 L 91.789062 58.433594 C 91.746094 58.40625 91.707031 58.378906 91.667969 58.347656 L 91.601562 58.296875 L 91.574219 58.273438 C 91.570312 58.269531 91.5625 58.265625 91.558594 58.261719 L 91.492188 58.207031 C 91.265625 57.996094 91.085938 57.746094 90.960938 57.460938 C 90.835938 57.175781 90.773438 56.875 90.773438 56.5625 C 90.773438 56.25 90.835938 55.953125 90.960938 55.664062 C 91.085938 55.378906 91.265625 55.132812 91.492188 54.917969 L 91.507812 54.90625 C 91.734375 54.699219 91.992188 54.546875 92.28125 54.449219 C 92.289062 54.445312 92.292969 54.441406 92.300781 54.441406 C 92.527344 54.363281 92.761719 54.328125 93.003906 54.328125 C 93.261719 54.328125 93.507812 54.371094 93.75 54.457031 C 93.992188 54.542969 94.210938 54.664062 94.410156 54.828125 C 94.609375 54.988281 94.773438 55.179688 94.910156 55.398438 C 95.042969 55.617188 95.136719 55.851562 95.1875 56.101562 C 95.1875 56.117188 95.195312 56.128906 95.195312 56.144531 C 95.222656 56.28125 95.234375 56.417969 95.234375 56.558594 C 95.234375 56.714844 95.21875 56.867188 95.1875 57.015625 C 95.1875 57.03125 95.183594 57.046875 95.179688 57.058594 C 95.121094 57.304688 95.023438 57.535156 94.890625 57.746094 C 94.757812 57.960938 94.589844 58.144531 94.394531 58.304688 C 94.195312 58.460938 93.976562 58.578125 93.738281 58.664062 C 93.503906 58.746094 93.257812 58.789062 93.003906 58.789062 Z M 198.210938 24.582031 C 198.664062 24.582031 199.082031 24.710938 199.457031 24.964844 C 199.835938 25.222656 200.109375 25.558594 200.28125 25.980469 C 200.328125 26.105469 200.367188 26.226562 200.394531 26.355469 C 200.414062 26.445312 200.425781 26.539062 200.433594 26.628906 C 200.4375 26.691406 200.441406 26.753906 200.441406 26.8125 C 200.441406 26.84375 200.441406 26.871094 200.441406 26.898438 C 200.4375 27.023438 200.421875 27.148438 200.394531 27.269531 C 200.34375 27.523438 200.25 27.757812 200.117188 27.976562 C 199.980469 28.195312 199.816406 28.382812 199.617188 28.542969 C 199.417969 28.707031 199.199219 28.828125 198.957031 28.914062 C 198.714844 29 198.464844 29.042969 198.210938 29.046875 C 198.019531 29.046875 197.832031 29.019531 197.648438 28.972656 C 197.605469 28.960938 197.5625 28.949219 197.523438 28.9375 C 197.464844 28.917969 197.40625 28.894531 197.347656 28.871094 C 197.339844 28.867188 197.335938 28.867188 197.332031 28.863281 C 197.148438 28.785156 196.980469 28.6875 196.824219 28.5625 L 196.734375 28.480469 C 196.683594 28.4375 196.640625 28.390625 196.59375 28.347656 C 196.589844 28.34375 196.585938 28.339844 196.582031 28.335938 C 196.371094 28.109375 196.210938 27.847656 196.109375 27.554688 C 196.003906 27.257812 195.964844 26.957031 195.988281 26.644531 C 196.011719 26.335938 196.097656 26.042969 196.242188 25.765625 C 196.390625 25.492188 196.585938 25.257812 196.828125 25.0625 C 196.949219 24.96875 197.078125 24.886719 197.21875 24.816406 C 197.355469 24.746094 197.5 24.691406 197.652344 24.65625 C 197.835938 24.605469 198.019531 24.582031 198.210938 24.582031 Z M 137.453125 43.894531 C 137.226562 43.96875 137 44.003906 136.765625 44.003906 C 136.507812 44.003906 136.261719 43.960938 136.019531 43.875 C 135.777344 43.789062 135.558594 43.664062 135.359375 43.503906 C 135.160156 43.34375 134.992188 43.152344 134.859375 42.933594 C 134.726562 42.714844 134.632812 42.480469 134.582031 42.230469 C 134.554688 42.105469 134.539062 41.980469 134.535156 41.855469 C 134.535156 41.828125 134.535156 41.800781 134.535156 41.773438 C 134.535156 41.710938 134.539062 41.652344 134.542969 41.589844 C 134.5625 41.367188 134.613281 41.15625 134.695312 40.949219 C 134.867188 40.527344 135.140625 40.1875 135.519531 39.933594 C 135.894531 39.675781 136.3125 39.550781 136.765625 39.546875 C 137.117188 39.546875 137.449219 39.625 137.765625 39.785156 C 138.046875 39.925781 138.289062 40.117188 138.488281 40.359375 C 138.660156 40.570312 138.792969 40.800781 138.878906 41.058594 C 138.964844 41.3125 139.007812 41.578125 138.996094 41.847656 C 138.988281 42.121094 138.933594 42.378906 138.828125 42.628906 C 138.726562 42.878906 138.582031 43.105469 138.398438 43.300781 C 138.394531 43.308594 138.390625 43.3125 138.386719 43.3125 C 138.339844 43.359375 138.292969 43.40625 138.246094 43.449219 C 138.066406 43.609375 137.867188 43.738281 137.644531 43.832031 C 137.640625 43.832031 137.632812 43.835938 137.628906 43.835938 C 137.570312 43.859375 137.511719 43.878906 137.453125 43.894531 Z M 163.722656 55.445312 C 163.597656 55.417969 163.472656 55.402344 163.347656 55.402344 C 162.976562 55.402344 162.644531 55.515625 162.351562 55.734375 C 162.054688 55.957031 161.855469 56.246094 161.753906 56.601562 L 148.214844 56.601562 C 148.214844 56.585938 148.214844 56.570312 148.214844 56.554688 C 148.214844 56.339844 148.1875 56.125 148.136719 55.914062 C 148.085938 55.703125 148.007812 55.503906 147.910156 55.3125 C 147.808594 55.121094 147.6875 54.941406 147.542969 54.78125 C 147.402344 54.617188 147.242188 54.472656 147.0625 54.351562 C 146.886719 54.226562 146.695312 54.125 146.496094 54.046875 C 146.292969 53.96875 146.085938 53.914062 145.871094 53.886719 C 145.65625 53.859375 145.441406 53.859375 145.226562 53.882812 C 145.007812 53.90625 144.800781 53.953125 144.597656 54.03125 L 138.867188 44.113281 C 139.191406 43.824219 139.445312 43.480469 139.625 43.082031 C 139.804688 42.6875 139.902344 42.273438 139.910156 41.835938 C 139.917969 41.402344 139.839844 40.984375 139.675781 40.582031 C 139.507812 40.179688 139.269531 39.828125 138.960938 39.523438 L 144.882812 29.265625 L 145.441406 28.296875 C 145.628906 28.367188 145.824219 28.402344 146.027344 28.402344 C 146.398438 28.402344 146.730469 28.292969 147.027344 28.070312 C 147.320312 27.847656 147.519531 27.558594 147.621094 27.203125 L 161.746094 27.203125 C 161.804688 27.40625 161.898438 27.59375 162.027344 27.761719 C 162.160156 27.929688 162.316406 28.066406 162.496094 28.175781 C 162.679688 28.28125 162.878906 28.351562 163.085938 28.382812 C 163.296875 28.417969 163.507812 28.410156 163.710938 28.359375 L 163.75 28.425781 L 164.558594 29.828125 L 170.070312 39.367188 C 169.363281 39.886719 168.949219 40.578125 168.820312 41.441406 C 168.777344 41.746094 168.777344 42.054688 168.820312 42.359375 C 168.949219 43.226562 169.367188 43.917969 170.074219 44.4375 Z M 173.421875 43.574219 C 173 43.949219 172.507812 44.136719 171.941406 44.136719 C 171.6875 44.136719 171.4375 44.09375 171.195312 44.007812 C 170.953125 43.921875 170.734375 43.796875 170.535156 43.636719 C 170.335938 43.476562 170.171875 43.285156 170.039062 43.066406 C 169.902344 42.847656 169.8125 42.613281 169.757812 42.363281 C 169.695312 42.058594 169.695312 41.753906 169.757812 41.445312 C 169.867188 40.929688 170.128906 40.503906 170.539062 40.171875 C 170.78125 39.976562 171.050781 39.835938 171.351562 39.753906 C 171.59375 39.6875 171.839844 39.664062 172.09375 39.679688 C 172.34375 39.699219 172.585938 39.753906 172.816406 39.855469 C 173.046875 39.953125 173.257812 40.089844 173.441406 40.257812 C 173.628906 40.425781 173.78125 40.625 173.902344 40.84375 C 174.023438 41.066406 174.101562 41.300781 174.140625 41.550781 C 174.183594 41.800781 174.179688 42.046875 174.136719 42.296875 C 174.09375 42.542969 174.007812 42.777344 173.886719 42.996094 C 173.761719 43.21875 173.605469 43.410156 173.417969 43.578125 Z M 171.941406 38.753906 C 171.582031 38.753906 171.230469 38.8125 170.886719 38.9375 L 164.523438 27.914062 C 164.671875 27.761719 164.789062 27.589844 164.875 27.394531 C 164.957031 27.195312 165 26.992188 165.003906 26.777344 C 165.011719 26.566406 164.976562 26.359375 164.898438 26.160156 C 164.824219 25.960938 164.714844 25.78125 164.570312 25.625 L 164.9375 24.984375 L 171.558594 13.511719 C 171.804688 13.609375 172.058594 13.648438 172.320312 13.628906 C 172.585938 13.609375 172.832031 13.527344 173.054688 13.390625 C 173.28125 13.25 173.460938 13.070312 173.601562 12.84375 C 173.738281 12.617188 173.820312 12.375 173.839844 12.109375 L 186.976562 12.109375 C 187.003906 12.3125 187.050781 12.507812 187.121094 12.699219 C 187.191406 12.890625 187.28125 13.070312 187.394531 13.242188 C 187.503906 13.410156 187.632812 13.566406 187.78125 13.707031 C 187.925781 13.847656 188.085938 13.972656 188.261719 14.078125 C 188.433594 14.179688 188.617188 14.265625 188.8125 14.328125 C 189.003906 14.390625 189.203125 14.433594 189.40625 14.449219 C 189.609375 14.46875 189.808594 14.464844 190.011719 14.4375 C 190.214844 14.40625 190.410156 14.359375 190.597656 14.285156 L 196.359375 24.261719 C 196.242188 24.34375 196.132812 24.4375 196.03125 24.535156 L 196.003906 24.558594 C 195.695312 24.863281 195.457031 25.214844 195.289062 25.617188 C 195.125 26.023438 195.046875 26.441406 195.058594 26.875 C 195.066406 27.308594 195.160156 27.726562 195.34375 28.121094 C 195.523438 28.515625 195.777344 28.859375 196.101562 29.148438 L 196.113281 29.160156 C 196.160156 29.203125 196.203125 29.242188 196.257812 29.28125 C 196.292969 29.308594 196.324219 29.332031 196.355469 29.355469 L 196.335938 29.390625 L 190.746094 39.070312 L 189.941406 40.46875 C 189.855469 40.453125 189.769531 40.449219 189.679688 40.445312 C 189.339844 40.445312 189.023438 40.542969 188.742188 40.738281 C 188.460938 40.933594 188.257812 41.1875 188.132812 41.507812 L 175.066406 41.507812 C 175.019531 41.128906 174.90625 40.769531 174.726562 40.429688 C 174.546875 40.089844 174.3125 39.796875 174.027344 39.542969 C 173.738281 39.289062 173.414062 39.09375 173.054688 38.957031 C 172.699219 38.820312 172.328125 38.753906 171.941406 38.753906 Z M 216.257812 55.535156 C 216.035156 55.472656 215.808594 55.453125 215.582031 55.484375 C 215.351562 55.511719 215.136719 55.585938 214.9375 55.707031 C 214.742188 55.824219 214.574219 55.980469 214.441406 56.167969 C 214.308594 56.355469 214.214844 56.5625 214.167969 56.789062 L 199.875 56.789062 C 199.796875 56.40625 199.605469 56.089844 199.296875 55.839844 C 198.992188 55.59375 198.644531 55.46875 198.25 55.46875 C 198.109375 55.46875 197.96875 55.488281 197.828125 55.527344 L 191.128906 43.917969 L 190.796875 43.34375 C 190.972656 43.1875 191.109375 43 191.207031 42.78125 C 191.300781 42.566406 191.347656 42.339844 191.347656 42.101562 C 191.347656 41.863281 191.296875 41.640625 191.199219 41.421875 C 191.097656 41.207031 190.960938 41.023438 190.78125 40.867188 L 190.917969 40.632812 L 191.332031 39.910156 L 197.179688 29.789062 C 197.511719 29.90625 197.859375 29.960938 198.210938 29.960938 C 198.578125 29.960938 198.9375 29.898438 199.28125 29.773438 C 199.625 29.648438 199.941406 29.46875 200.222656 29.234375 C 200.503906 29 200.738281 28.722656 200.925781 28.40625 C 201.113281 28.089844 201.238281 27.75 201.308594 27.390625 L 214.242188 27.390625 C 214.363281 27.714844 214.566406 27.976562 214.851562 28.175781 C 215.136719 28.375 215.453125 28.472656 215.796875 28.472656 C 215.914062 28.472656 216.027344 28.460938 216.140625 28.4375 L 216.230469 28.589844 L 216.730469 29.457031 L 222.546875 39.542969 C 222.511719 39.566406 222.480469 39.589844 222.449219 39.617188 C 222.398438 39.65625 222.347656 39.699219 222.300781 39.738281 L 222.289062 39.75 C 221.964844 40.039062 221.714844 40.382812 221.53125 40.777344 C 221.351562 41.175781 221.253906 41.589844 221.246094 42.023438 C 221.238281 42.460938 221.316406 42.878906 221.480469 43.28125 C 221.644531 43.683594 221.882812 44.035156 222.195312 44.339844 L 222.21875 44.363281 C 222.320312 44.460938 222.429688 44.554688 222.546875 44.636719 Z M 226.621094 42.277344 C 226.601562 42.5 226.550781 42.714844 226.464844 42.917969 C 226.296875 43.339844 226.023438 43.679688 225.644531 43.9375 C 225.265625 44.191406 224.851562 44.320312 224.394531 44.320312 C 224.203125 44.320312 224.015625 44.296875 223.832031 44.246094 C 223.679688 44.207031 223.535156 44.152344 223.398438 44.082031 C 223.117188 43.941406 222.875 43.75 222.675781 43.507812 C 222.5 43.296875 222.371094 43.066406 222.285156 42.808594 C 222.195312 42.554688 222.15625 42.289062 222.164062 42.019531 C 222.171875 41.75 222.230469 41.488281 222.332031 41.238281 C 222.4375 40.988281 222.582031 40.761719 222.765625 40.566406 C 222.769531 40.5625 222.773438 40.558594 222.777344 40.554688 C 222.820312 40.507812 222.871094 40.460938 222.914062 40.417969 C 222.945312 40.390625 222.980469 40.363281 223.011719 40.339844 C 223.167969 40.214844 223.335938 40.113281 223.519531 40.035156 C 223.523438 40.035156 223.527344 40.03125 223.535156 40.03125 C 223.589844 40.003906 223.652344 39.984375 223.710938 39.964844 C 223.75 39.953125 223.792969 39.9375 223.832031 39.929688 C 224.019531 39.878906 224.207031 39.855469 224.398438 39.855469 C 224.652344 39.855469 224.902344 39.898438 225.144531 39.984375 C 225.386719 40.070312 225.605469 40.195312 225.804688 40.355469 C 226.003906 40.515625 226.167969 40.707031 226.300781 40.925781 C 226.433594 41.144531 226.527344 41.378906 226.582031 41.628906 C 226.609375 41.753906 226.625 41.878906 226.628906 42.003906 C 226.628906 42.03125 226.628906 42.058594 226.628906 42.085938 C 226.625 42.152344 226.625 42.21875 226.617188 42.277344 Z M 226.621094 42.277344 " fill-opacity="1" fill-rule="nonzero"/></g></svg>