<svg width="50" height="50" viewBox="0 0 50 50" fill="none" xmlns="http://www.w3.org/2000/svg">
<path d="M43.9845 21.5227L39.858 17.3977C39.801 17.3405 39.7333 17.2951 39.6587 17.2642C39.5842 17.2332 39.5042 17.2173 39.4235 17.2173C39.3428 17.2173 39.2628 17.2332 39.1883 17.2642C39.1137 17.2951 39.046 17.3405 38.989 17.3977L27.6975 28.6877L27.72 28.7102L27.684 28.7002L26.1385 34.4672L26.143 34.4682C26.1039 34.5811 26.0991 34.7031 26.1292 34.8188C26.1593 34.9345 26.2231 35.0386 26.3123 35.1181C26.4016 35.1976 26.5124 35.2488 26.6308 35.2654C26.7492 35.282 26.8698 35.2631 26.9775 35.2112L26.9785 35.2157L32.686 33.6862L32.6825 33.6727L32.692 33.6822L43.984 22.3907C44.0989 22.2755 44.1634 22.1195 44.1635 21.9568C44.1636 21.7941 44.0992 21.638 43.9845 21.5227ZM28.0175 33.3487L28.9355 29.9257L31.4415 32.4317L28.0175 33.3487Z" fill="black" fill-opacity="0.4"/>
<path d="M35.9835 36.615H32.241C32.0782 36.6153 31.9221 36.6801 31.807 36.7953C31.6918 36.9105 31.6271 37.0667 31.627 37.2295L31.628 37.2355V41.593H10.806V10.9045H13.3045V12.439C13.3035 12.4555 13.2995 12.4705 13.2995 12.4875C13.2995 12.9865 13.7045 13.3945 14.2065 13.3945L14.2135 13.394V13.398H28.227C28.4673 13.3977 28.6978 13.3021 28.8677 13.1322C29.0376 12.9623 29.1332 12.7318 29.1335 12.4915C29.1335 12.484 29.1315 12.477 29.1315 12.4695V10.9045H31.6275V15.2635L31.6265 15.2695C31.6264 15.3502 31.6422 15.4301 31.673 15.5047C31.7038 15.5793 31.749 15.6471 31.806 15.7041C31.8631 15.7612 31.9308 15.8065 32.0053 15.8373C32.0799 15.8682 32.1598 15.8841 32.2405 15.884H35.983C36.1458 15.8839 36.3019 15.8191 36.417 15.704C36.5321 15.5889 36.5969 15.4328 36.597 15.27V8.63H36.5875C36.588 8.6055 36.595 8.5825 36.595 8.5575C36.595 7.86232 36.319 7.19558 35.8276 6.70382C35.3362 6.21206 34.6697 5.93553 33.9745 5.935C33.9545 5.935 33.9365 5.9405 33.9165 5.941H26.638V4.239C26.638 3.7985 26.281 3.4425 25.8415 3.4415V3.4375H16.6165V3.4405C16.609 3.4405 16.6025 3.4385 16.595 3.4385C16.155 3.4385 15.798 3.795 15.798 4.2355L15.7995 4.2505V5.9405H8.4675L8.4575 5.9395C7.76253 5.94029 7.09625 6.21676 6.60488 6.70823C6.1135 7.1997 5.83716 7.86602 5.8365 8.561C5.8365 8.5845 5.843 8.606 5.8435 8.6295H5.8365V43.9155H5.838L5.8365 43.929C5.83663 44.2731 5.90455 44.6138 6.03637 44.9317C6.16819 45.2495 6.36133 45.5383 6.60477 45.7815C6.8482 46.0247 7.13716 46.2176 7.45514 46.3491C7.77312 46.4806 8.1139 46.5482 8.458 46.548C8.497 46.548 8.5335 46.538 8.5725 46.5365V46.547H33.8225C33.8715 46.5495 33.918 46.5615 33.9675 46.5615C34.6621 46.5614 35.3282 46.2854 35.8194 45.7943C36.3107 45.3032 36.5867 44.6371 36.587 43.9425C36.587 43.933 36.5845 43.9245 36.5845 43.915H36.5985V37.229C36.5984 37.1483 36.5825 37.0684 36.5515 36.9939C36.5206 36.9193 36.4753 36.8516 36.4182 36.7946C36.3611 36.7376 36.2933 36.6924 36.2187 36.6616C36.1441 36.6308 36.0642 36.6149 35.9835 36.615Z" fill="black" fill-opacity="0.4"/>
</svg>
